<svg width="64" height="64" viewBox="0 0 64 64" fill="none" xmlns="http://www.w3.org/2000/svg">
<g clip-path="url(#clip0_116_269)">
<path d="M42.4214 40.8666C41.1654 40.8666 40.1418 41.8902 40.1418 43.1462C40.1418 44.4022 41.1654 45.4258 42.4214 45.4258C43.6774 45.4258 44.701 44.4022 44.701 43.1462C44.701 41.8902 43.6774 40.8666 42.4214 40.8666Z" fill="white"/>
<path d="M40.7615 25.8003C40.7615 25.0921 40.1861 24.5167 39.4779 24.5167H19.786C19.0777 24.5167 18.5023 25.0921 18.5023 25.8003V38.7641C18.5023 39.4723 19.0777 40.0477 19.786 40.0477H20.2065C21.2079 38.5372 22.9232 37.5413 24.8652 37.5413C26.8073 37.5413 28.5226 38.5372 29.524 40.0477H37.7571C38.4598 38.9854 39.5166 38.1831 40.756 37.7958V25.8003H40.7615Z" fill="white"/>
<path d="M24.8708 40.8666C23.6148 40.8666 22.5912 41.8902 22.5912 43.1462C22.5912 44.4022 23.6148 45.4258 24.8708 45.4258C26.1268 45.4258 27.1504 44.4022 27.1504 43.1462C27.1504 41.8902 26.1268 40.8666 24.8708 40.8666Z" fill="white"/>
<path d="M44.1255 28.4617V37.8179C45.3483 38.2108 46.383 39.0075 47.0801 40.0533H51.7168V35.0017L47.307 28.4617H44.12H44.1255Z" fill="white"/>
<path d="M31.9972 0C14.3249 0 0 14.3249 0 31.9972C0 49.6696 14.3249 64 31.9972 64C49.6696 64 64 49.6696 64 31.9972C64 14.3249 49.6696 0 31.9972 0ZM53.3822 43.373H48.0097C47.888 46.3553 45.4313 48.7456 42.4214 48.7456C39.4114 48.7456 36.9548 46.3553 36.8331 43.373H30.4535C30.3318 46.3553 27.8752 48.7456 24.8652 48.7456C21.8553 48.7456 19.382 46.3387 19.2769 43.3454C17.0416 43.1019 15.2876 41.2484 15.188 38.9743H12.0951V35.6545H15.1825V33.6793H7.51932V30.3595H15.1825V28.3842H3.42492V25.0644H15.2489C15.6085 22.8789 17.5008 21.2024 19.7859 21.2024H39.4778C41.7906 21.2024 43.7106 22.9176 44.0315 25.1474H48.1978C48.7511 25.1474 49.2657 25.4241 49.5755 25.8778L54.7655 33.5686C54.948 33.8452 55.0476 34.1662 55.0476 34.4981V41.7187C55.0476 42.6372 54.3062 43.3786 53.3877 43.3786L53.3822 43.373Z" fill="white"/>
</g>
<defs>
<clipPath id="clip0_116_269">
<rect width="64" height="64" fill="white"/>
</clipPath>
</defs>
</svg>
