<svg width="24" height="24" viewBox="0 0 24 24" fill="none" xmlns="http://www.w3.org/2000/svg">
<path fill-rule="evenodd" clip-rule="evenodd" d="M10.0898 11.5078L4.58984 10.5078L4 10.4014V13H2V17H4V19.417L4.41016 19.4922L9.91016 20.4922L10.5 20.5986V11.583L10.0898 11.5078ZM5 17V18.582L9.5 19.4004V12.417L5 11.5986V13C6.10457 13 7 13.8954 7 15C7 16.1046 6.10457 17 5 17ZM5 14C5.55228 14 6 14.4477 6 15C6 15.5523 5.55228 16 5 16H3V14H5Z" fill="black"/>
<path fill-rule="evenodd" clip-rule="evenodd" d="M19.4102 10.5078L13.953 11.5H9.5V19.5C9.5 20.3284 10.1716 21 11 21H13C13.4517 21 13.8567 20.8004 14.1317 20.4846L19.5898 19.4922L20 19.417V17H22V13H20V10.4014L19.4102 10.5078ZM19 13C17.8954 13 17 13.8954 17 15C17 16.1046 17.8954 17 19 17V18.582L14.5 19.4004V12.417L19 11.5986V13ZM13.5 19.5V12.5H10.5V19.5C10.5 19.7762 10.7239 20 11 20H13C13.2761 20 13.5 19.7762 13.5 19.5ZM19 14C18.4477 14 18 14.4477 18 15C18 15.5523 18.4477 16 19 16H21V14H19Z" fill="black"/>
<path d="M12 2C14.7614 2 17 4.23858 17 7V11.5" stroke="black"/>
<path d="M12 2C9.23858 2 7 4.23858 7 7V11.5" stroke="black"/>
<path d="M7 8.5C8.66667 8.66667 12 8.3 12 5.5C12 6.5 13 8.5 17 8.5" stroke="black"/>
<path d="M8.5 8.5C8.5 9.33333 8.8 11.2 10 12" stroke="black"/>
<path d="M15.5 8.5C15.5 9.33333 15.2 11.2 14 12" stroke="black"/>
</svg>
