<svg width="24" height="24" viewBox="0 0 24 24" fill="none" xmlns="http://www.w3.org/2000/svg">
<path fill-rule="evenodd" clip-rule="evenodd" d="M15.326 14.4121L12.0283 12.9344L12.0192 12.9302C11.848 12.857 11.6612 12.8276 11.4758 12.8447C11.2904 12.8618 11.1122 12.9249 10.9573 13.0282C10.939 13.0403 10.9215 13.0534 10.9048 13.0674L9.20096 14.5199C8.12155 13.9956 7.00714 12.8896 6.48284 11.8242L7.93745 10.0945C7.95145 10.077 7.96475 10.0595 7.97735 10.0406C8.07845 9.88612 8.13979 9.70903 8.15591 9.5251C8.17203 9.34118 8.14243 9.15612 8.06975 8.9864V8.978L6.58784 5.67466C6.49176 5.45295 6.32654 5.26825 6.11687 5.14815C5.90719 5.02804 5.66429 4.97897 5.42443 5.00826C4.4759 5.13307 3.60524 5.5989 2.97507 6.31874C2.34489 7.03857 1.99829 7.96319 2.00001 8.9199C2.00001 14.4779 6.52204 19 12.0801 19C13.0368 19.0017 13.9614 18.6551 14.6812 18.0249C15.4011 17.3948 15.8669 16.5241 15.9917 15.5756C16.021 15.3358 15.9721 15.0929 15.8521 14.8833C15.7321 14.6736 15.5476 14.5083 15.326 14.4121ZM12.0801 17.88C9.70452 17.8774 7.427 16.9325 5.74722 15.2528C4.06745 13.573 3.12261 11.2955 3.12001 8.9199C3.11738 8.23633 3.36365 7.57518 3.81283 7.05991C4.26202 6.54465 4.8834 6.2105 5.56093 6.11987C5.56066 6.12266 5.56066 6.12548 5.56093 6.12827L7.03094 9.4183L5.58403 11.1501C5.56935 11.167 5.55601 11.185 5.54413 11.204C5.43879 11.3657 5.37699 11.5518 5.36473 11.7443C5.35247 11.9369 5.39015 12.1293 5.47413 12.303C6.10834 13.6001 7.41524 14.8973 8.72635 15.5308C8.90133 15.614 9.0949 15.6503 9.28814 15.6363C9.48138 15.6224 9.66769 15.5585 9.82886 15.451C9.84683 15.4389 9.86413 15.4258 9.88066 15.4118L11.5824 13.9599L14.8724 15.4335H14.8801C14.7906 16.1119 14.4569 16.7346 13.9416 17.1849C13.4262 17.6352 12.7644 17.8823 12.0801 17.88ZM19.721 6.5H9.27861L14.1606 11.0065C14.3522 11.1833 14.6474 11.1833 14.8389 11.0065L19.721 6.5ZM7.66064 6.3674L7.66074 6.3673C7.5619 6.27595 7.5 6.1452 7.5 6C7.5 5.72393 7.72374 5.50012 7.99978 5.5C7.99986 5.5 7.99993 5.5 8 5.5H19.9998C21.3805 5.5 22.4998 6.61929 22.4998 8V13C22.4998 14.3807 21.3805 15.5 19.9998 15.5H16.4998V14.5H19.9998C20.8282 14.5 21.4998 13.8284 21.4998 13V8C21.4998 7.50197 21.2571 7.06063 20.8835 6.78781L15.5172 11.7413C14.9426 12.2717 14.057 12.2717 13.4824 11.7413L7.66064 6.3674Z" fill="#313131"/>
</svg>
