<svg width="64" height="64" viewBox="0 0 64 64" fill="none" xmlns="http://www.w3.org/2000/svg">
<g clip-path="url(#clip0_116_265)">
<path d="M54.0184 31.9972L50.6046 27.0065L51.0638 20.9811L45.6138 18.364L42.9967 12.914L36.9713 13.3732L31.9806 9.9649L26.9898 13.3732L20.9644 12.914L18.3473 18.364L12.8973 20.9811L13.3566 27.0065L9.94824 31.9972L13.3566 36.988L12.8973 43.0134L18.3473 45.6305L20.9644 51.0805L26.9898 50.6213L31.9806 54.0296L36.9713 50.6213L42.9967 51.0805L45.6138 45.6305L51.0638 43.0134L50.6046 36.988L54.0184 31.9972ZM25.8832 38.3436C25.8832 39.5608 24.8984 40.5457 23.6811 40.5457C22.4638 40.5457 21.479 39.5608 21.479 38.3436V28.9541C21.479 27.7368 22.4638 26.752 23.6811 26.752C24.8984 26.752 25.8832 27.7368 25.8832 28.9541V38.3436ZM41.4143 38.1886C41.4143 39.9094 40.4128 40.5236 38.6865 40.5236H30.7689C29.0481 40.5236 27.6538 39.1293 27.6538 37.4085V29.6181C27.6538 29.6181 27.4989 28.3233 28.9319 27.1061C29.7453 26.4145 30.9459 25.1031 31.7869 23.5041C33.4579 20.3337 34.4594 19.4152 35.2229 19.6587C38.0392 20.5716 36.6283 24.7546 35.7209 26.4975H38.2937C40.0145 26.4975 41.4088 27.8918 41.4088 29.6125V38.1831L41.4143 38.1886Z" fill="white"/>
<path d="M31.9972 0C14.3249 0 0 14.3249 0 31.9972C0 49.6696 14.3249 64 31.9972 64C49.6696 64 63.9945 49.6696 63.9945 31.9972C63.9945 14.3249 49.6696 0 31.9972 0ZM47.7662 47.9046L44.712 54.262L37.6796 53.7253L31.8589 57.7035L26.0382 53.7253L19.0058 54.262L15.9516 47.9046L9.59419 44.8559L10.1309 37.8235L6.14714 32.0028L10.1254 26.1821L9.58866 19.1497L15.9461 16.0954L19.0003 9.73805L26.0327 10.2747L31.8534 6.29653L37.6741 10.2747L44.7065 9.73805L47.7607 16.0954L54.1181 19.1497L53.5814 26.1821L57.5596 32.0028L53.5814 37.8235L54.1181 44.8559L47.7607 47.9046H47.7662Z" fill="white"/>
</g>
<defs>
<clipPath id="clip0_116_265">
<rect width="64" height="64" fill="white"/>
</clipPath>
</defs>
</svg>
