<svg width="24" height="24" viewBox="0 0 24 24" fill="none" xmlns="http://www.w3.org/2000/svg">
<path d="M15.186 4.0625C14.8717 4.06244 14.5613 4.13247 14.2774 4.26752C13.9934 4.40258 13.7429 4.59927 13.5441 4.84336C13.3453 5.08745 13.2031 5.37283 13.1279 5.67881C13.0527 5.98479 13.0462 6.30372 13.1091 6.6125C13.1262 6.69429 13.1238 6.77896 13.1021 6.85965C13.0805 6.94033 13.0401 7.01476 12.9844 7.07687C12.9286 7.13898 12.859 7.18703 12.7813 7.21711C12.7035 7.24719 12.6198 7.25846 12.5369 7.25C12.1872 7.25 11.8566 7.335 11.5662 7.48588C11.4075 7.16613 11.2092 6.8677 10.976 6.59763C11.2961 6.41611 11.6454 6.29206 12.0081 6.23106V6.1875C12.0081 5.76891 12.0904 5.35442 12.2501 4.9677C12.4099 4.58097 12.644 4.22958 12.9392 3.9336C13.2344 3.63761 13.5849 3.40282 13.9706 3.24263C14.3562 3.08245 14.7696 3 15.1871 3C15.6046 3 16.0179 3.08245 16.4036 3.24263C16.7893 3.40282 17.1398 3.63761 17.435 3.9336C17.7302 4.22958 17.9643 4.58097 18.1241 4.9677C18.2838 5.35442 18.3661 5.76891 18.3661 6.1875L18.365 6.23106C18.7813 6.30356 19.179 6.45853 19.5349 6.68693C19.8907 6.91533 20.1976 7.21257 20.4376 7.56127C20.6775 7.90997 20.8458 8.30314 20.9324 8.71779C21.0191 9.13244 21.0224 9.56026 20.9423 9.97622C20.8621 10.3922 20.7001 10.788 20.4656 11.1404C20.2311 11.4928 19.9289 11.7949 19.5767 12.0288C19.2245 12.2628 18.8292 12.424 18.4141 12.5031C17.999 12.5821 17.5724 12.5774 17.1591 12.4892L17.3922 13.4529C17.4583 13.7265 17.4616 14.0116 17.4018 14.2866C17.342 14.5617 17.2207 14.8196 17.047 15.0408C16.8734 15.262 16.6519 15.4407 16.3992 15.5636C16.1466 15.6865 15.8695 15.7502 15.5887 15.75H14.7812C14.5004 15.7499 14.2233 15.6859 13.9707 15.5628C13.7182 15.4397 13.4968 15.2607 13.3233 15.0393C13.1499 14.8178 13.0288 14.5598 12.9693 14.2846C12.9098 14.0095 12.9134 13.7243 12.9798 13.4508L13.4567 11.483C13.4731 11.4152 13.5027 11.3513 13.5437 11.2949C13.5848 11.2386 13.6365 11.1909 13.6959 11.1546C13.7554 11.1183 13.8213 11.0941 13.8901 11.0833C13.9589 11.0726 14.0291 11.0755 14.0967 11.092C14.1643 11.1085 14.2281 11.1381 14.2843 11.1793C14.3405 11.2204 14.388 11.2723 14.4242 11.3319C14.4604 11.3915 14.4846 11.4576 14.4953 11.5266C14.506 11.5955 14.5031 11.6659 14.4867 11.7338L14.0098 13.7026C13.9814 13.8197 13.9799 13.9418 14.0055 14.0597C14.031 14.1775 14.0828 14.288 14.1571 14.3828C14.2313 14.4776 14.3261 14.5543 14.4342 14.6071C14.5423 14.6599 14.661 14.6874 14.7812 14.6875H15.5887C15.7091 14.6877 15.828 14.6604 15.9364 14.6078C16.0448 14.5552 16.1398 14.4785 16.2143 14.3836C16.2888 14.2888 16.3409 14.1782 16.3665 14.0602C16.3921 13.9422 16.3907 13.8199 16.3622 13.7026L15.8854 11.7327C15.8607 11.6295 15.8674 11.5213 15.9046 11.422C15.9418 11.3227 16.0078 11.2368 16.0941 11.1754C16.1803 11.114 16.283 11.08 16.3888 11.0776C16.4946 11.0752 16.5986 11.1047 16.6876 11.1621C16.9661 11.3416 17.2826 11.4532 17.6119 11.4879C17.9411 11.5227 18.2739 11.4796 18.5836 11.3621C18.8932 11.2446 19.1711 11.056 19.395 10.8115C19.6188 10.5669 19.7824 10.2732 19.8727 9.95377C19.9629 9.63438 19.9772 9.29823 19.9146 8.97227C19.8519 8.64632 19.7139 8.33962 19.5117 8.07677C19.3095 7.81392 19.0487 7.60222 18.7502 7.45864C18.4517 7.31507 18.1238 7.24361 17.7928 7.25C17.7133 7.25161 17.6345 7.23528 17.5622 7.20221C17.4899 7.16914 17.4259 7.12018 17.375 7.05896C17.3241 6.99773 17.2877 6.92582 17.2683 6.84853C17.2489 6.77125 17.247 6.69058 17.263 6.6125C17.3258 6.30372 17.3194 5.98479 17.2442 5.67881C17.1689 5.37283 17.0267 5.08745 16.8279 4.84336C16.6291 4.59927 16.3787 4.40258 16.0947 4.26752C15.8107 4.13247 15.5003 4.06244 15.186 4.0625ZM5.64914 9.375C5.64914 9.03829 5.72894 8.7064 5.88196 8.40668C6.03498 8.10696 6.25684 7.84799 6.52926 7.65111C6.80169 7.45423 7.11687 7.32508 7.44884 7.2743C7.78081 7.22352 8.12006 7.25257 8.43863 7.35905C8.75721 7.46553 9.04599 7.64639 9.28118 7.88672C9.51637 8.12706 9.69123 8.42 9.79136 8.74139C9.89148 9.06279 9.91401 9.40344 9.85708 9.73528C9.80014 10.0671 9.66538 10.3806 9.4639 10.65C9.40486 10.7289 9.36891 10.8228 9.36007 10.921C9.35123 11.0193 9.36986 11.1181 9.41387 11.2063C9.45787 11.2946 9.52551 11.3688 9.60921 11.4207C9.69291 11.4725 9.78936 11.5 9.88776 11.5H10.4176C10.5581 11.5 10.6929 11.556 10.7922 11.6556C10.8916 11.7552 10.9474 11.8904 10.9474 12.0312C10.9474 12.1721 10.8916 12.3073 10.7922 12.4069C10.6929 12.5065 10.5581 12.5625 10.4176 12.5625H9.24455C9.16964 12.5626 9.09559 12.5785 9.02729 12.6094C8.959 12.6403 8.898 12.6853 8.84833 12.7415C8.79867 12.7977 8.76145 12.8639 8.73915 12.9356C8.71685 13.0073 8.70997 13.0829 8.71896 13.1575C9.03897 15.7819 10.4239 17.2885 11.1986 17.9387C11.384 18.0939 11.4772 18.2894 11.4772 18.4583C11.4772 18.5854 11.4269 18.7073 11.3373 18.7971C11.2476 18.887 11.1261 18.9375 10.9993 18.9375H4.5365C4.40994 18.9372 4.28865 18.8866 4.19925 18.7968C4.10986 18.7069 4.05965 18.5852 4.05965 18.4583C4.05965 18.2883 4.1529 18.0939 4.33728 17.9387C5.11295 17.2885 6.49898 15.7819 6.81794 13.1575C6.82693 13.0829 6.82004 13.0073 6.79774 12.9356C6.77544 12.8639 6.73823 12.7977 6.68856 12.7415C6.63889 12.6853 6.5779 12.6403 6.5096 12.6094C6.4413 12.5785 6.36726 12.5626 6.29235 12.5625H5.11931C4.97879 12.5625 4.84403 12.5065 4.74467 12.4069C4.6453 12.3073 4.58948 12.1721 4.58948 12.0312C4.58948 11.8904 4.6453 11.7552 4.74467 11.6556C4.84403 11.556 4.97879 11.5 5.11931 11.5H5.64914C5.74753 11.5 5.84398 11.4725 5.92768 11.4207C6.01138 11.3688 6.07903 11.2946 6.12303 11.2063C6.16703 11.1181 6.18566 11.0193 6.17682 10.921C6.16799 10.8228 6.13204 10.7289 6.073 10.65C5.79711 10.2826 5.64829 9.83492 5.64914 9.375ZM7.76845 6.1875C7.25656 6.18736 6.75221 6.31116 6.29829 6.54839C5.84436 6.78561 5.45427 7.12924 5.1612 7.55005C4.86813 7.97086 4.68074 8.45641 4.61496 8.96541C4.54919 9.47441 4.60697 9.99182 4.7834 10.4736C4.40008 10.5569 4.061 10.7793 3.83136 11.0981C3.60172 11.4169 3.49774 11.8096 3.53942 12.2006C3.5811 12.5917 3.7655 12.9534 4.05715 13.2164C4.3488 13.4793 4.7271 13.6249 5.11931 13.625H5.67033C5.27614 15.5354 4.23662 16.6383 3.65699 17.1238C3.29035 17.4319 3 17.9058 3 18.4583C3 19.3094 3.68878 20 4.53756 20H11.0004C11.8481 20 12.5369 19.3094 12.5369 18.4583C12.5369 17.9058 12.2465 17.4319 11.8799 17.1238C11.3003 16.6383 10.2608 15.5354 9.86656 13.625H10.4176C10.8098 13.6249 11.1881 13.4793 11.4797 13.2164C11.7714 12.9534 11.9558 12.5917 11.9975 12.2006C12.0392 11.8096 11.9352 11.4169 11.7055 11.0981C11.4759 10.7793 11.1368 10.5569 10.7535 10.4736C10.9299 9.99182 10.9877 9.47441 10.9219 8.96541C10.8562 8.45641 10.6688 7.97086 10.3757 7.55005C10.0826 7.12924 9.69254 6.78561 9.23861 6.54839C8.78468 6.31116 8.28033 6.18736 7.76845 6.1875Z" fill="#313131"/>
</svg>
