<svg width="24" height="24" viewBox="0 0 24 24" fill="none" xmlns="http://www.w3.org/2000/svg">
<path d="M8 3.5H20C20.8284 3.5 21.5 4.17157 21.5 5V12.3789C21.5 13.2073 20.8284 13.8789 20 13.8789H19.3662V17.1035L14.2627 13.9541L14.1416 13.8789H8C7.17157 13.8789 6.5 13.2073 6.5 12.3789V5C6.5 4.17157 7.17157 3.5 8 3.5Z" stroke="black"/>
<path d="M6.5 8H4.5C3.39543 8 2.5 8.89543 2.5 10V15.7659C2.5 16.7232 3.27604 17.4993 4.23333 17.4993V20L8 17.4993H13.5C14.6046 17.4993 15.5 16.6038 15.5 15.4993V15" stroke="black"/>
<path d="M14 5L14.8981 7.76393H17.8042L15.4531 9.47214L16.3511 12.2361L14 10.5279L11.6489 12.2361L12.5469 9.47214L10.1958 7.76393H13.1019L14 5Z" fill="black"/>
</svg>
