<svg width="24" height="24" viewBox="0 0 24 24" fill="none" xmlns="http://www.w3.org/2000/svg">
<path fill-rule="evenodd" clip-rule="evenodd" d="M16.8639 14.6072L17.4533 14.5V15.0991V16.42H16.4533V15.6982L13.8209 16.1768V20.3732V20.4439L16.4533 19.9653V18.5H17.4533V20.3826V20.7999L17.0427 20.8745L13.4104 21.5349L13.2278 21.5681C12.9759 21.7596 12.6617 21.8732 12.3209 21.8732H11.6792C10.8508 21.8732 10.1792 21.2016 10.1792 20.3732V15.7595V15.2595H10.6792H13.2758L16.8639 14.6072ZM12.8209 16.2595V20.3732C12.8209 20.6494 12.5971 20.8732 12.3209 20.8732H11.6792C11.4031 20.8732 11.1792 20.6494 11.1792 20.3732V16.2595H12.8209Z" fill="black"/>
<path d="M15.9518 16.956C15.5392 17.1945 15.3977 17.7223 15.6358 18.1352C15.8743 18.5482 16.4026 18.6902 16.8156 18.4521L17.7214 17.9291C17.9604 17.7911 18.0423 17.4852 17.9044 17.2461L17.2906 16.183L15.9518 16.956Z" stroke="black"/>
<path d="M6.88403 16.42V15.0991L10.5164 15.7596V21.043L6.88403 20.3826V18.5" stroke="black"/>
<path d="M7.88545 16.956C8.29813 17.1945 8.43959 17.7223 8.20143 18.1352C7.96301 18.5482 7.4347 18.6902 7.02168 18.4521L6.1159 17.9291C5.87683 17.7911 5.795 17.4852 5.93289 17.2461L6.54666 16.183L7.88545 16.956Z" stroke="black"/>
<path d="M7.5 9C8.5 8.5 10 7.84587 10 6C10 6.65924 10 8 16.5 8" stroke="black"/>
<path d="M12 2.5C14.685 2.5 16.7904 4.8055 16.5473 7.47947L16.5381 7.58078C16.5127 7.85984 16.4659 8.13653 16.3979 8.40838L16.1063 9.57464C15.7227 11.1091 16.051 12.7347 17 14" stroke="black"/>
<path d="M12 2.5C9.31501 2.5 7.20959 4.8055 7.45268 7.47947L7.46189 7.58078C7.48726 7.85984 7.53413 8.13653 7.60209 8.40838L7.89366 9.57464C8.27727 11.1091 7.94899 12.7347 7 14" stroke="black"/>
<path d="M9.09451 8C9.03281 8.2557 9 8.52376 9 8.8C9 10.5673 10.3431 12 12 12C13.6569 12 15 10.5673 15 8.8C15 8.52376 14.9672 8.2557 14.9055 8" stroke="black"/>
<path d="M11 12C11 14 9 13.5 8 15" stroke="black"/>
<path d="M13 12C13 14 15 13.5 16 15" stroke="black"/>
</svg>
