<svg width="64" height="64" viewBox="0 0 64 64" fill="none" xmlns="http://www.w3.org/2000/svg">
<g clip-path="url(#clip0_116_275)">
<path d="M39.6716 26.4587C38.6535 26.4587 37.8291 27.2832 37.8291 28.3012C37.8291 29.3193 38.6535 30.1437 39.6716 30.1437C40.6897 30.1437 41.5141 29.3193 41.5141 28.3012C41.5141 27.2832 40.6897 26.4587 39.6716 26.4587Z" fill="white"/>
<path d="M34.0721 20.2618H26.3259V23.5816H34.0721V20.2618Z" fill="white"/>
<path d="M31.9972 0C14.3249 0 0 14.3249 0 31.9972C0 49.6696 14.3249 64 31.9972 64C49.6696 64 63.9945 49.6696 63.9945 31.9972C63.9945 14.3249 49.6696 0 31.9972 0ZM49.1439 37.2204H47.1908C46.2889 39.6549 44.7508 41.8072 42.7201 43.4948L44.1864 44.961C45.4866 46.2613 45.4866 48.3749 44.1864 49.6751C42.8861 50.9754 40.7725 50.9754 39.4723 49.6751L36.5011 46.7039C34.9131 47.141 33.209 47.3789 31.4052 47.3789C29.9611 47.3789 28.5778 47.224 27.2721 46.9418L24.5332 49.6806C23.233 50.9809 21.1194 50.9809 19.8191 49.6806C18.5189 48.3804 18.5189 46.2668 19.8191 44.9665L20.7597 44.0259C16.9918 41.2262 14.7011 36.9271 14.7011 32.1079C14.7011 29.9888 15.1438 27.9637 15.9627 26.1267C12.1228 25.8612 10.5735 23.2219 10.2969 21.7889C10.1198 20.887 10.7063 20.0183 11.6082 19.8413C12.4935 19.6642 13.3566 20.2396 13.5503 21.1194C13.6277 21.4182 14.1146 22.8291 16.5989 22.8291C17.0139 22.8291 17.3846 22.984 17.6723 23.233C20.6048 19.3544 25.5015 16.8258 31.4052 16.8258C32.4675 16.8258 33.4967 16.9143 34.4871 17.0748L43.03 13.8103L41.3203 19.6698C44.0536 21.468 46.1008 24.0131 47.1963 26.9844H49.1495C50.6157 26.9844 51.8053 28.1739 51.8053 29.6402V34.5645C51.8053 36.0308 50.6157 37.2204 49.1495 37.2204H49.1439Z" fill="white"/>
</g>
<defs>
<clipPath id="clip0_116_275">
<rect width="64" height="64" fill="white"/>
</clipPath>
</defs>
</svg>
