<svg width="21" height="21" viewBox="0 0 21 21" fill="none" xmlns="http://www.w3.org/2000/svg">
<path d="M20.2768 19.2163L14.6128 13.5523C15.9739 11.9183 16.6526 9.82245 16.5078 7.70075C16.363 5.57905 15.4058 3.59486 13.8353 2.16096C12.2647 0.727051 10.2019 -0.0461741 8.07579 0.00213463C5.9497 0.0504433 3.92408 0.916566 2.42033 2.42033C0.916566 3.92408 0.0504433 5.9497 0.00213463 8.07579C-0.0461741 10.2019 0.727051 12.2647 2.16096 13.8353C3.59486 15.4058 5.57905 16.363 7.70075 16.5078C9.82245 16.6526 11.9183 15.9739 13.5523 14.6128L19.2163 20.2768L20.2768 19.2163ZM1.52682 8.27682C1.52682 6.9418 1.9227 5.63675 2.6644 4.52672C3.4061 3.41669 4.46031 2.55152 5.69371 2.04063C6.92711 1.52974 8.28431 1.39607 9.59368 1.65652C10.9031 1.91697 12.1058 2.55984 13.0498 3.50385C13.9938 4.44785 14.6367 5.65059 14.8971 6.95996C15.1576 8.26933 15.0239 9.62653 14.513 10.8599C14.0021 12.0933 13.137 13.1475 12.0269 13.8892C10.9169 14.6309 9.61184 15.0268 8.27682 15.0268C6.48722 15.0248 4.77148 14.313 3.50604 13.0476C2.2406 11.7822 1.52881 10.0664 1.52682 8.27682Z" fill="#313131"/>
</svg>
